# xmcd
#
# Track frame offsets: 
#        150
#        16188
#        40433
#        62744
#        81012
#        90267
#        112301
#        130084
#        143214
#        166718
#        190071
#        205546
#        229447
#        249636
#        271769
#        284404
#        308399
#        315841
#        324580
#        340398
#
# Disc length: 4702 seconds
#
# Revision: 1
# Processed by: cddbd v1.5.2PL0 Copyright (c) Steve Scherf et al.
# Submitted via: ExactAudioCopyFreeDBPlugin 1.0
#
DISCID=0d125c14
DTITLE=Charlie Musselwhite - Harpin' On A Riff - The Best Of
DYEAR=1999
DGENRE=Blues
TTITLE0=Harpin' On A Riff
TTITLE1=Blues Got Me Again
TTITLE2=Hear Me Talkin'
TTITLE3=Way I Feel
TTITLE4=Fast Life Blues
TTITLE5=It's Gettin' Warm In Here
TTITLE6=Finger Lickin' Good
TTITLE7=Crazy For My Baby
TTITLE8=Yesterdays
TTITLE9=Hey! Miss Bessie
TTITLE10=Run Here Mama
TTITLE11=Take Me Back
TTITLE12=When It Rains It Pours
TTITLE13=Revelation
TTITLE14=Taylor's, Arkansas
TTITLE15=This Old Nightlife
TTITLE16=Azul Para Amparo
TTITLE17=Blues In The Dark
TTITLE18=Hangin' On
TTITLE19=My Road Lies In Darkness
EXTD=
EXTT0=
EXTT1=
EXTT2=
EXTT3=
EXTT4=
EXTT5=
EXTT6=
EXTT7=
EXTT8=
EXTT9=
EXTT10=
EXTT11=
EXTT12=
EXTT13=
EXTT14=
EXTT15=
EXTT16=
EXTT17=
EXTT18=
EXTT19=
PLAYORDER=
